<svg width="40" height="40" viewBox="0 0 40 40" fill="none" xmlns="http://www.w3.org/2000/svg">
<rect width="40" height="40" rx="20" fill="#FF3B30"/>
<path d="M3.444 25.28C3.444 25.232 3.452 25.164 3.468 25.076C3.484 24.988 3.504 24.896 3.528 24.8C3.552 24.704 3.572 24.612 3.588 24.524C3.612 24.436 3.632 24.36 3.648 24.296C3.768 23.64 3.828 22.968 3.828 22.28C3.828 21.928 3.82 21.58 3.804 21.236C3.788 20.884 3.76 20.532 3.72 20.18C3.696 19.996 3.66 19.812 3.612 19.628C3.564 19.436 3.54 19.248 3.54 19.064C3.54 18.928 3.596 18.808 3.708 18.704C3.82 18.6 3.952 18.516 4.104 18.452C4.264 18.38 4.424 18.328 4.584 18.296C4.752 18.264 4.888 18.248 4.992 18.248C5.288 18.248 5.584 18.312 5.88 18.44C6.184 18.56 6.456 18.728 6.696 18.944C6.936 19.152 7.128 19.396 7.272 19.676C7.424 19.956 7.5 20.248 7.5 20.552C7.5 20.712 7.48 20.868 7.44 21.02C7.408 21.164 7.36 21.304 7.296 21.44C7.096 21.944 6.824 22.336 6.48 22.616C6.144 22.888 5.716 23.092 5.196 23.228C5.108 23.252 5.016 23.272 4.92 23.288C4.824 23.312 4.732 23.332 4.644 23.348C4.636 23.452 4.62 23.612 4.596 23.828C4.572 24.052 4.54 24.284 4.5 24.524C4.468 24.764 4.428 24.984 4.38 25.184C4.332 25.384 4.28 25.52 4.224 25.592C4.168 25.656 4.112 25.704 4.056 25.736C4 25.768 3.928 25.784 3.84 25.784C3.712 25.784 3.612 25.728 3.54 25.616C3.476 25.504 3.444 25.392 3.444 25.28ZM4.68 22.448C4.896 22.416 5.088 22.376 5.256 22.328C5.424 22.272 5.576 22.204 5.712 22.124C5.856 22.036 5.984 21.928 6.096 21.8C6.208 21.664 6.316 21.492 6.42 21.284C6.484 21.172 6.536 21.056 6.576 20.936C6.616 20.808 6.636 20.68 6.636 20.552C6.636 20.384 6.58 20.216 6.468 20.048C6.356 19.872 6.216 19.716 6.048 19.58C5.888 19.436 5.712 19.324 5.52 19.244C5.328 19.156 5.152 19.112 4.992 19.112C4.8 19.112 4.616 19.168 4.44 19.28C4.52 19.784 4.58 20.288 4.62 20.792C4.66 21.288 4.68 21.788 4.68 22.292V22.448ZM11.7136 22.124C11.8016 22.084 11.9016 22.028 12.0136 21.956C12.1256 21.884 12.2296 21.848 12.3256 21.848C12.4376 21.848 12.5336 21.888 12.6136 21.968C12.6936 22.04 12.7336 22.132 12.7336 22.244C12.7336 22.364 12.6776 22.472 12.5656 22.568C12.4056 22.704 12.2216 22.82 12.0136 22.916C11.8056 23.012 11.5856 23.092 11.3536 23.156C11.1296 23.228 10.9016 23.28 10.6696 23.312C10.4376 23.344 10.2216 23.36 10.0216 23.36C9.56559 23.36 9.17759 23.236 8.85759 22.988C8.54559 22.74 8.38959 22.372 8.38959 21.884C8.38959 21.564 8.47359 21.288 8.64159 21.056C8.80959 20.824 9.02159 20.636 9.27759 20.492C9.53359 20.34 9.81359 20.224 10.1176 20.144C10.4216 20.064 10.7056 20.016 10.9696 20C10.9536 19.936 10.9296 19.856 10.8976 19.76C10.8736 19.664 10.8416 19.572 10.8016 19.484C10.7616 19.396 10.7096 19.324 10.6456 19.268C10.5816 19.204 10.5056 19.172 10.4176 19.172C10.2656 19.172 10.1296 19.204 10.0096 19.268C9.88959 19.324 9.77759 19.388 9.67359 19.46C9.56959 19.524 9.46959 19.588 9.37359 19.652C9.28559 19.708 9.19359 19.736 9.09759 19.736C8.99359 19.736 8.90159 19.692 8.82159 19.604C8.74159 19.508 8.70159 19.412 8.70159 19.316C8.70159 19.18 8.76959 19.052 8.90559 18.932C9.04159 18.812 9.20159 18.708 9.38559 18.62C9.56959 18.524 9.75759 18.448 9.94959 18.392C10.1496 18.336 10.3056 18.308 10.4176 18.308C10.6816 18.308 10.9056 18.38 11.0896 18.524C11.2736 18.66 11.4256 18.836 11.5456 19.052C11.6656 19.268 11.7496 19.504 11.7976 19.76C11.8536 20.008 11.8816 20.24 11.8816 20.456C11.8816 20.736 11.8656 21.016 11.8336 21.296C11.8096 21.568 11.7696 21.844 11.7136 22.124ZM10.7176 22.484C10.7336 22.468 10.7576 22.388 10.7896 22.244C10.8216 22.092 10.8496 21.928 10.8736 21.752C10.9056 21.576 10.9336 21.408 10.9576 21.248C10.9816 21.088 10.9936 20.984 10.9936 20.936C10.8576 20.936 10.6896 20.952 10.4896 20.984C10.2976 21.016 10.1056 21.072 9.91359 21.152C9.72959 21.224 9.56959 21.32 9.43359 21.44C9.30559 21.56 9.24159 21.708 9.24159 21.884C9.24159 22.02 9.26559 22.132 9.31359 22.22C9.36159 22.3 9.42559 22.364 9.50559 22.412C9.58559 22.46 9.67759 22.496 9.78159 22.52C9.88559 22.536 9.99359 22.544 10.1056 22.544C10.2896 22.544 10.4936 22.524 10.7176 22.484ZM13.2485 23.144C13.2485 23.008 13.2605 22.88 13.2845 22.76C13.3165 22.632 13.3405 22.504 13.3565 22.376C13.3805 22.2 13.3965 22.028 13.4045 21.86C13.4125 21.692 13.4165 21.52 13.4165 21.344C13.4165 21.032 13.3845 20.724 13.3205 20.42C13.2645 20.108 13.1805 19.808 13.0685 19.52C13.0285 19.408 12.9725 19.276 12.9005 19.124C12.8285 18.972 12.7925 18.844 12.7925 18.74C12.7925 18.62 12.8325 18.516 12.9125 18.428C12.9925 18.34 13.0925 18.296 13.2125 18.296C13.2765 18.296 13.3285 18.308 13.3685 18.332C13.4085 18.348 13.4485 18.372 13.4885 18.404C13.5525 18.452 13.6205 18.552 13.6925 18.704C13.7645 18.856 13.8285 19.024 13.8845 19.208C13.9485 19.392 14.0045 19.572 14.0525 19.748C14.1005 19.916 14.1325 20.044 14.1485 20.132C14.2365 19.988 14.3605 19.848 14.5205 19.712C14.6885 19.576 14.8685 19.456 15.0605 19.352C15.2525 19.248 15.4485 19.164 15.6485 19.1C15.8565 19.036 16.0445 19.004 16.2125 19.004C16.3485 19.004 16.4565 19.052 16.5365 19.148C16.6165 19.236 16.6565 19.344 16.6565 19.472C16.6565 19.592 16.6085 19.684 16.5125 19.748C16.4245 19.812 16.3125 19.864 16.1765 19.904C16.0485 19.936 15.9125 19.968 15.7685 20C15.6325 20.032 15.5165 20.072 15.4205 20.12C15.2285 20.224 15.0645 20.372 14.9285 20.564C14.7925 20.748 14.6765 20.956 14.5805 21.188C14.4845 21.412 14.4045 21.644 14.3405 21.884C14.2845 22.124 14.2405 22.344 14.2085 22.544C14.1925 22.664 14.1765 22.788 14.1605 22.916C14.1445 23.044 14.1165 23.168 14.0765 23.288C14.0445 23.376 13.9885 23.444 13.9085 23.492C13.8285 23.54 13.7445 23.564 13.6565 23.564C13.5445 23.564 13.4485 23.52 13.3685 23.432C13.2885 23.352 13.2485 23.256 13.2485 23.144ZM19.8758 23.408C19.4438 23.408 19.0998 23.264 18.8438 22.976C18.5878 22.688 18.4518 22.34 18.4358 21.932C18.4198 21.596 18.4078 21.26 18.3998 20.924C18.3998 20.588 18.3958 20.248 18.3878 19.904C18.2278 19.92 18.0718 19.936 17.9198 19.952C17.7758 19.96 17.6238 19.964 17.4638 19.964C17.3278 19.964 17.2198 19.924 17.1398 19.844C17.0598 19.764 17.0198 19.656 17.0198 19.52C17.0198 19.408 17.0598 19.32 17.1398 19.256C17.2198 19.184 17.3118 19.14 17.4158 19.124C17.5678 19.1 17.7198 19.084 17.8718 19.076C18.0318 19.068 18.1918 19.056 18.3518 19.04C18.3358 18.808 18.3198 18.584 18.3038 18.368C18.2958 18.144 18.2838 17.92 18.2678 17.696C18.2518 17.568 18.2318 17.444 18.2078 17.324C18.1918 17.196 18.1838 17.072 18.1838 16.952C18.1838 16.824 18.2278 16.716 18.3158 16.628C18.4118 16.532 18.5238 16.484 18.6518 16.484C18.7878 16.484 18.9038 16.536 18.9998 16.64C19.0478 16.688 19.0838 16.82 19.1078 17.036C19.1398 17.252 19.1638 17.488 19.1798 17.744C19.1958 18 19.2078 18.248 19.2158 18.488C19.2238 18.728 19.2278 18.896 19.2278 18.992C19.4278 18.984 19.6238 18.98 19.8158 18.98C20.0158 18.972 20.2158 18.968 20.4158 18.968C20.4478 18.968 20.5038 18.968 20.5838 18.968C20.6718 18.968 20.7598 18.972 20.8478 18.98C20.9358 18.98 21.0158 18.984 21.0878 18.992C21.1678 19 21.2198 19.008 21.2438 19.016C21.3318 19.048 21.3998 19.108 21.4478 19.196C21.4958 19.276 21.5198 19.36 21.5198 19.448C21.5198 19.56 21.4718 19.656 21.3758 19.736C21.2878 19.808 21.1878 19.844 21.0758 19.844C20.8998 19.844 20.7238 19.84 20.5478 19.832C20.3718 19.824 20.1958 19.82 20.0198 19.82C19.8918 19.82 19.7638 19.824 19.6358 19.832C19.5158 19.832 19.3878 19.84 19.2518 19.856C19.2598 20.064 19.2638 20.276 19.2638 20.492C19.2638 20.708 19.2638 20.92 19.2638 21.128C19.2638 21.248 19.2598 21.396 19.2518 21.572C19.2518 21.74 19.2638 21.904 19.2878 22.064C19.3198 22.216 19.3798 22.348 19.4678 22.46C19.5558 22.564 19.6918 22.616 19.8758 22.616C20.0598 22.616 20.2158 22.572 20.3438 22.484C20.4718 22.396 20.5838 22.304 20.6798 22.208C20.7838 22.104 20.8798 22.008 20.9678 21.92C21.0638 21.832 21.1718 21.788 21.2918 21.788C21.3878 21.788 21.4718 21.832 21.5438 21.92C21.6238 22.008 21.6638 22.096 21.6638 22.184C21.6638 22.232 21.6518 22.28 21.6278 22.328C21.6118 22.368 21.5918 22.408 21.5678 22.448C21.3678 22.704 21.1198 22.928 20.8238 23.12C20.5278 23.312 20.2118 23.408 19.8758 23.408ZM25.4809 22.652C25.4809 22.396 25.4969 22.14 25.5289 21.884C25.5689 21.628 25.5889 21.368 25.5889 21.104C25.5889 21.024 25.5809 20.872 25.5649 20.648C25.5569 20.424 25.5329 20.196 25.4929 19.964C25.4609 19.732 25.4129 19.524 25.3489 19.34C25.2849 19.156 25.2009 19.064 25.0969 19.064C25.0009 19.064 24.9049 19.088 24.8089 19.136C24.7129 19.184 24.6249 19.236 24.5449 19.292C24.3529 19.428 24.1849 19.604 24.0409 19.82C23.9049 20.036 23.7929 20.268 23.7049 20.516C23.6169 20.764 23.5449 21.02 23.4889 21.284C23.4409 21.54 23.4089 21.78 23.3929 22.004C23.3929 22.052 23.3889 22.132 23.3809 22.244C23.3729 22.356 23.3649 22.472 23.3569 22.592C23.3569 22.712 23.3489 22.824 23.3329 22.928C23.3249 23.032 23.3169 23.096 23.3089 23.12C23.2689 23.2 23.2129 23.264 23.1409 23.312C23.0769 23.368 22.9969 23.396 22.9009 23.396C22.7889 23.396 22.6889 23.352 22.6009 23.264C22.5129 23.176 22.4689 23.072 22.4689 22.952C22.4689 22.712 22.4689 22.472 22.4689 22.232C22.4769 21.992 22.4809 21.752 22.4809 21.512C22.4809 21.208 22.4689 20.904 22.4449 20.6C22.4289 20.288 22.3849 19.98 22.3129 19.676C22.2809 19.54 22.2289 19.376 22.1569 19.184C22.0929 18.984 22.0609 18.82 22.0609 18.692C22.0609 18.564 22.1169 18.46 22.2289 18.38C22.3409 18.3 22.4529 18.26 22.5649 18.26C22.6849 18.26 22.7809 18.312 22.8529 18.416C22.9329 18.512 22.9969 18.632 23.0449 18.776C23.0929 18.912 23.1289 19.056 23.1529 19.208C23.1769 19.352 23.1969 19.468 23.2129 19.556C23.2929 19.388 23.4009 19.228 23.5369 19.076C23.6729 18.916 23.8249 18.776 23.9929 18.656C24.1689 18.528 24.3529 18.428 24.5449 18.356C24.7369 18.276 24.9289 18.236 25.1209 18.236C25.4329 18.236 25.6729 18.344 25.8409 18.56C26.0089 18.776 26.1329 19.036 26.2129 19.34C26.3009 19.644 26.3529 19.96 26.3689 20.288C26.3849 20.616 26.3929 20.888 26.3929 21.104C26.3929 21.176 26.3889 21.304 26.3809 21.488C26.3809 21.664 26.3729 21.852 26.3569 22.052C26.3409 22.244 26.3209 22.424 26.2969 22.592C26.2729 22.752 26.2409 22.856 26.2009 22.904C26.1209 23.008 26.0169 23.06 25.8889 23.06C25.7769 23.06 25.6809 23.02 25.6009 22.94C25.5209 22.86 25.4809 22.764 25.4809 22.652ZM29.9777 23.48C29.6177 23.48 29.2817 23.416 28.9697 23.288C28.6577 23.168 28.3817 22.996 28.1417 22.772C27.9097 22.548 27.7257 22.284 27.5897 21.98C27.4617 21.668 27.3977 21.332 27.3977 20.972C27.3977 20.652 27.4697 20.328 27.6137 20C27.7657 19.672 27.9657 19.376 28.2137 19.112C28.4617 18.84 28.7377 18.62 29.0417 18.452C29.3537 18.276 29.6737 18.188 30.0017 18.188C30.2177 18.188 30.4137 18.248 30.5897 18.368C30.7737 18.488 30.9297 18.636 31.0577 18.812C31.1937 18.988 31.3057 19.184 31.3937 19.4C31.4897 19.608 31.5617 19.8 31.6097 19.976C31.6337 20.064 31.6537 20.156 31.6697 20.252C31.6937 20.348 31.7057 20.44 31.7057 20.528C31.7057 20.64 31.6777 20.732 31.6217 20.804C31.5657 20.868 31.4897 20.924 31.3937 20.972C31.3617 20.988 31.2697 21.004 31.1177 21.02C30.9737 21.036 30.7937 21.052 30.5777 21.068C30.3697 21.084 30.1377 21.1 29.8817 21.116C29.6337 21.124 29.3977 21.132 29.1737 21.14C28.9497 21.148 28.7457 21.156 28.5617 21.164C28.3857 21.172 28.2657 21.176 28.2017 21.176C28.2097 21.408 28.2657 21.62 28.3697 21.812C28.4737 21.996 28.6057 22.156 28.7657 22.292C28.9337 22.42 29.1217 22.52 29.3297 22.592C29.5377 22.656 29.7537 22.688 29.9777 22.688C30.0737 22.688 30.1777 22.672 30.2897 22.64C30.4097 22.608 30.5257 22.568 30.6377 22.52C30.7497 22.472 30.8577 22.42 30.9617 22.364C31.0657 22.3 31.1537 22.236 31.2257 22.172C31.2577 22.14 31.2857 22.108 31.3097 22.076C31.3337 22.036 31.3657 22 31.4057 21.968C31.4777 21.872 31.5897 21.824 31.7417 21.824C31.8377 21.824 31.9217 21.868 31.9937 21.956C32.0657 22.036 32.1017 22.124 32.1017 22.22C32.1017 22.332 32.0497 22.448 31.9457 22.568C31.8497 22.68 31.7577 22.768 31.6697 22.832C31.4297 23.016 31.1617 23.168 30.8657 23.288C30.5777 23.416 30.2817 23.48 29.9777 23.48ZM28.4057 20.312C28.7897 20.312 29.1777 20.3 29.5697 20.276C29.9617 20.244 30.3497 20.216 30.7337 20.192C30.7177 20.12 30.6857 20.02 30.6377 19.892C30.5897 19.764 30.5337 19.64 30.4697 19.52C30.4057 19.4 30.3297 19.296 30.2417 19.208C30.1617 19.12 30.0777 19.076 29.9897 19.076C29.8457 19.076 29.6937 19.112 29.5337 19.184C29.3817 19.248 29.2337 19.34 29.0897 19.46C28.9457 19.572 28.8137 19.704 28.6937 19.856C28.5737 20 28.4777 20.152 28.4057 20.312ZM33.018 23.144C33.018 23.008 33.03 22.88 33.054 22.76C33.086 22.632 33.11 22.504 33.126 22.376C33.15 22.2 33.166 22.028 33.174 21.86C33.182 21.692 33.186 21.52 33.186 21.344C33.186 21.032 33.154 20.724 33.09 20.42C33.034 20.108 32.95 19.808 32.838 19.52C32.798 19.408 32.742 19.276 32.67 19.124C32.598 18.972 32.562 18.844 32.562 18.74C32.562 18.62 32.602 18.516 32.682 18.428C32.762 18.34 32.862 18.296 32.982 18.296C33.046 18.296 33.098 18.308 33.138 18.332C33.178 18.348 33.218 18.372 33.258 18.404C33.322 18.452 33.39 18.552 33.462 18.704C33.534 18.856 33.598 19.024 33.654 19.208C33.718 19.392 33.774 19.572 33.822 19.748C33.87 19.916 33.902 20.044 33.918 20.132C34.006 19.988 34.13 19.848 34.29 19.712C34.458 19.576 34.638 19.456 34.83 19.352C35.022 19.248 35.218 19.164 35.418 19.1C35.626 19.036 35.814 19.004 35.982 19.004C36.118 19.004 36.226 19.052 36.306 19.148C36.386 19.236 36.426 19.344 36.426 19.472C36.426 19.592 36.378 19.684 36.282 19.748C36.194 19.812 36.082 19.864 35.946 19.904C35.818 19.936 35.682 19.968 35.538 20C35.402 20.032 35.286 20.072 35.19 20.12C34.998 20.224 34.834 20.372 34.698 20.564C34.562 20.748 34.446 20.956 34.35 21.188C34.254 21.412 34.174 21.644 34.11 21.884C34.054 22.124 34.01 22.344 33.978 22.544C33.962 22.664 33.946 22.788 33.93 22.916C33.914 23.044 33.886 23.168 33.846 23.288C33.814 23.376 33.758 23.444 33.678 23.492C33.598 23.54 33.514 23.564 33.426 23.564C33.314 23.564 33.218 23.52 33.138 23.432C33.058 23.352 33.018 23.256 33.018 23.144Z" fill="#FFE2E2"/>
</svg>
