<svg width="25" height="25" viewBox="0 0 25 25" fill="none" xmlns="http://www.w3.org/2000/svg">
<rect width="25" height="25" rx="12.5" fill="#007AFF"/>
<path d="M7.5 18.536C7.58 18.424 7.648 18.256 7.704 18.032C7.76 17.816 7.804 17.568 7.836 17.288C7.876 17.008 7.908 16.712 7.932 16.4C7.956 16.088 7.972 15.784 7.98 15.488C7.988 15.192 7.992 14.92 7.992 14.672C8 14.416 8.004 14.212 8.004 14.06C7.94 14.164 7.86 14.284 7.764 14.42C7.676 14.556 7.576 14.684 7.464 14.804C7.352 14.924 7.232 15.028 7.104 15.116C6.976 15.196 6.844 15.236 6.708 15.236C6.484 15.236 6.296 15.176 6.144 15.056C6 14.928 5.872 14.772 5.76 14.588C5.696 14.484 5.616 14.308 5.52 14.06C5.424 13.812 5.328 13.552 5.232 13.28C5.136 13 5.048 12.732 4.968 12.476C4.888 12.22 4.836 12.032 4.812 11.912C4.812 11.784 4.856 11.68 4.944 11.6C5.04 11.512 5.148 11.468 5.268 11.468C5.356 11.468 5.432 11.5 5.496 11.564C5.568 11.62 5.62 11.684 5.652 11.756C5.716 11.908 5.788 12.112 5.868 12.368C5.948 12.616 6.028 12.872 6.108 13.136C6.196 13.4 6.284 13.648 6.372 13.88C6.468 14.112 6.564 14.28 6.66 14.384C6.708 14.352 6.772 14.292 6.852 14.204C6.932 14.108 6.992 14.036 7.032 13.988C7.288 13.652 7.512 13.264 7.704 12.824C7.896 12.376 8.052 11.952 8.172 11.552C8.188 11.504 8.204 11.436 8.22 11.348C8.244 11.26 8.268 11.172 8.292 11.084C8.316 10.988 8.34 10.9 8.364 10.82C8.388 10.74 8.412 10.684 8.436 10.652C8.492 10.58 8.548 10.528 8.604 10.496C8.66 10.464 8.732 10.448 8.82 10.448C8.932 10.448 9.028 10.496 9.108 10.592C9.188 10.68 9.228 10.776 9.228 10.88C9.228 10.968 9.212 11.056 9.18 11.144C9.156 11.224 9.136 11.304 9.12 11.384C9.056 11.664 9.008 11.972 8.976 12.308C8.952 12.644 8.932 12.956 8.916 13.244C8.876 13.892 8.852 14.54 8.844 15.188C8.844 15.836 8.808 16.484 8.736 17.132C8.704 17.412 8.66 17.696 8.604 17.984C8.548 18.28 8.456 18.552 8.328 18.8C8.2 19.048 8.028 19.248 7.812 19.4C7.596 19.56 7.312 19.64 6.96 19.64C6.776 19.64 6.564 19.616 6.324 19.568C6.092 19.528 5.896 19.468 5.736 19.388C5.656 19.348 5.588 19.292 5.532 19.22C5.484 19.156 5.46 19.08 5.46 18.992C5.46 18.872 5.5 18.768 5.58 18.68C5.668 18.6 5.772 18.56 5.892 18.56C6.028 18.56 6.192 18.596 6.384 18.668C6.576 18.74 6.772 18.776 6.972 18.776C7.084 18.776 7.18 18.76 7.26 18.728C7.348 18.696 7.428 18.632 7.5 18.536ZM14.1445 13.22C14.1445 13.564 14.0965 13.884 14.0005 14.18C13.9125 14.468 13.7725 14.72 13.5805 14.936C13.3965 15.144 13.1685 15.308 12.8965 15.428C12.6245 15.548 12.3085 15.608 11.9485 15.608C11.6525 15.608 11.3885 15.532 11.1565 15.38C10.9245 15.22 10.7285 15.02 10.5685 14.78C10.4085 14.54 10.2845 14.276 10.1965 13.988C10.1165 13.7 10.0765 13.424 10.0765 13.16C10.0765 12.88 10.1245 12.612 10.2205 12.356C10.3245 12.092 10.4645 11.864 10.6405 11.672C10.8165 11.472 11.0285 11.312 11.2765 11.192C11.5245 11.072 11.7965 11.012 12.0925 11.012C12.4045 11.012 12.6885 11.072 12.9445 11.192C13.2005 11.304 13.4165 11.46 13.5925 11.66C13.7685 11.86 13.9045 12.096 14.0005 12.368C14.0965 12.632 14.1445 12.916 14.1445 13.22ZM11.9845 14.744C12.2165 14.744 12.4125 14.704 12.5725 14.624C12.7405 14.544 12.8765 14.436 12.9805 14.3C13.0845 14.164 13.1605 14.004 13.2085 13.82C13.2565 13.636 13.2805 13.436 13.2805 13.22C13.2805 12.86 13.1805 12.548 12.9805 12.284C12.7805 12.012 12.4885 11.876 12.1045 11.876C11.9205 11.876 11.7565 11.912 11.6125 11.984C11.4685 12.056 11.3445 12.152 11.2405 12.272C11.1445 12.392 11.0685 12.532 11.0125 12.692C10.9565 12.844 10.9285 13.004 10.9285 13.172C10.9285 13.316 10.9485 13.48 10.9885 13.664C11.0365 13.84 11.1045 14.008 11.1925 14.168C11.2805 14.328 11.3885 14.464 11.5165 14.576C11.6525 14.688 11.8085 14.744 11.9845 14.744ZM18.5024 14.168C18.4064 14.36 18.2904 14.548 18.1544 14.732C18.0264 14.908 17.8784 15.068 17.7104 15.212C17.5504 15.348 17.3704 15.456 17.1704 15.536C16.9784 15.616 16.7664 15.656 16.5344 15.656C16.2544 15.656 16.0104 15.572 15.8024 15.404C15.5944 15.236 15.4464 15.02 15.3584 14.756C15.3104 14.604 15.2824 14.448 15.2744 14.288C15.2664 14.12 15.2544 13.952 15.2384 13.784C15.1984 13.464 15.1544 13.156 15.1064 12.86C15.0584 12.556 14.9864 12.252 14.8904 11.948C14.8424 11.812 14.8704 11.692 14.9744 11.588C15.0864 11.484 15.2064 11.432 15.3344 11.432C15.4224 11.432 15.4984 11.464 15.5624 11.528C15.6344 11.592 15.6864 11.664 15.7184 11.744C15.8304 12 15.9104 12.272 15.9584 12.56C16.0064 12.84 16.0424 13.12 16.0664 13.4C16.0744 13.48 16.0784 13.576 16.0784 13.688C16.0864 13.792 16.0944 13.9 16.1024 14.012C16.1104 14.124 16.1224 14.232 16.1384 14.336C16.1544 14.432 16.1744 14.508 16.1984 14.564C16.2784 14.732 16.3944 14.816 16.5464 14.816C16.8024 14.816 17.0344 14.724 17.2424 14.54C17.4504 14.348 17.6304 14.12 17.7824 13.856C17.9344 13.592 18.0584 13.316 18.1544 13.028C18.2504 12.74 18.3184 12.492 18.3584 12.284C18.3664 12.228 18.3744 12.132 18.3824 11.996C18.3984 11.852 18.4144 11.708 18.4304 11.564C18.4464 11.412 18.4624 11.276 18.4784 11.156C18.5024 11.036 18.5224 10.96 18.5384 10.928C18.6344 10.768 18.7624 10.688 18.9224 10.688C19.0344 10.688 19.1344 10.732 19.2224 10.82C19.3184 10.9 19.3664 11 19.3664 11.12V15.632C19.3664 15.768 19.3264 15.884 19.2464 15.98C19.1744 16.076 19.0664 16.124 18.9224 16.124C18.7864 16.124 18.6864 16.084 18.6224 16.004C18.5664 15.932 18.5264 15.84 18.5024 15.728C18.4864 15.616 18.4784 15.5 18.4784 15.38C18.4864 15.252 18.4904 15.14 18.4904 15.044C18.4904 14.9 18.4904 14.756 18.4904 14.612C18.4984 14.468 18.5024 14.32 18.5024 14.168Z" fill="#FFE2E2"/>
</svg>
